# xmcd
#
# Track frame offsets:
#	150
#	22444
#	37930
#	48556
#	66939
#	84152
#	100832
#	125011
#	139431
#	164853
#
# Disc length: 2439 seconds
#
# Revision: 0
# Processed by: cddbd v1.4PL0 Copyright (c) Steve Scherf et al.
# Submitted via: audiograbber 1.80.04
#
DISCID=9409850a
DTITLE=Михаил Гулько - New York - Москва
DYEAR=2003
DGENRE=Шансон
TTITLE0=Воркута - Ленинград
TTITLE1=Свобода
TTITLE2=Подаренное танго
TTITLE3=Сентиментальный вальс
TTITLE4=Тишина
TTITLE5=Кончается осень
TTITLE6=В красноярских лагерях
TTITLE7=В памать о друге
TTITLE8=Моя Москва
TTITLE9=Одессит Мишка
EXTD=2003 Музыкальное издательство "Русский шансон"\n2003 Музыкальное издательс
EXTD=тво "Лига прав"\n2003 РАО\n2003 ЗАО "Компания СО. Продакшн"\n2003 Студия "
EXTD=Монолит"
EXTT0=
EXTT1=
EXTT2=
EXTT3=
EXTT4=
EXTT5=
EXTT6=
EXTT7=
EXTT8=
EXTT9=
PLAYORDER=
